{"title":"Pearl Jam MTV Unplugged DVDRip 5.1","uid":6063085,"size":1171509248,"categoryP":"video","categoryS":"music_videos","magnet":"?xt=urn:btih:7513269d16cb6fb30f4fe754bdda61e228230dd2&amp;dn=Pearl+Jam+MTV+Unplugged+DVDRip+5.1&amp;tr=udp%3A%2F%2Ftracker.openbittorrent.com%3A80&amp;tr=udp%3A%2F%2Fopen.demonii.com%3A1337&amp;tr=udp%3A%2F%2Ftracker.coppersurfer.tk%3A6969&amp;tr=udp%3A%2F%2Fexodus.desync.com%3A6969","seeders":4,"leechers":1,"uploader":"bhobson333","files":1,"time":1293206290,"description":"Another bloat reduction.  Previously available was a 4.2 GB DVD and a 700 MB rip of dubious quality.  This is a 1.1 GB AVI ripped from the DVD with the 5.1 audio track intact.\n\nGeneral\nComplete name                    : PearlJamMTVUnpluggedDVDRip5.1.avi\nFormat                           : AVI\nFormat/Info                      : Audio Video Interleave\nFile size                        : 1.09 GiB\nDuration                         : 36mn 42s\nOverall bit rate                 : 4 255 Kbps\nWriting application              : VirtualDubMod 1.5.10.2 (build 2540/release)\nWriting library                  : VirtualDubMod build 2540/release\n\nVideo\nID                               : 0\nFormat                           : MPEG-4 Visual\nFormat profile                   : Advanced Simple@L5\nFormat settings, BVOP            : Yes\nFormat settings, QPel            : No\nFormat settings, GMC             : No warppoints\nFormat settings, Matrix          : Default (H.263)\nMuxing mode                      : Packed bitstream\nCodec ID                         : XVID\nCodec ID/Hint                    : XviD\nDuration                         : 36mn 42s\nBit rate                         : 3 798 Kbps\nWidth                            : 544 pixels\nHeight                           : 400 pixels\nDisplay aspect ratio             : 4:3\nFrame rate                       : 23.976 fps\nResolution                       : 8 bits\nColorimetry                      : 4:2:0\nScan type                        : Progressive\nBits/(Pixel*Frame)               : 0.728\nStream size                      : 997 MiB (89%)\nWriting library                  : XviD 1.0.3 (UTC 2004-12-20)\n\nAudio\nID                               : 1\nFormat                           : AC-3\nFormat/Info                      : Audio Coding 3\nFormat_Settings_ModeExtension    : CM (complete main)\nCodec ID                         : 2000\nDuration                         : 36mn 42s\nBit rate mode                    : Constant\nBit rate                         : 448 Kbps\nChannel(s)                       : 6 channels\nChannel positions                : Front: L C R, Side: L R, LFE\nSampling rate                    : 48.0 KHz\nStream size                      : 118 MiB (11%)\nAlignment                        : Split accross interleaves\nInterleave, duration             : 42 ms (1.00 video frame)\nInterleave, preload duration     : 500 ms\n\n","torrent":{"xt":"urn:btih:7513269d16cb6fb30f4fe754bdda61e228230dd2","amp;dn":"Pearl+Jam+MTV+Unplugged+DVDRip+5.1","amp;tr":["udp%3A%2F%2Ftracker.openbittorrent.com%3A80","udp%3A%2F%2Fopen.demonii.com%3A1337","udp%3A%2F%2Ftracker.coppersurfer.tk%3A6969","udp%3A%2F%2Fexodus.desync.com%3A6969"],"infoHash":"7513269d16cb6fb30f4fe754bdda61e228230dd2","infoHashBuffer":{"type":"Buffer","data":[117,19,38,157,22,203,111,179,15,79,231,84,189,218,97,226,40,35,13,210]},"announce":[],"urlList":[]}}